<svg xmlns="http://www.w3.org/2000/svg" width="1460" height="1060" viewBox="0 0 1460 1060" font-family="Liberation Sans, Helvetica, Arial, sans-serif" xmlns:c2pa="http://c2pa.org/manifest"><metadata><c2pa:manifest>AAAWgmp1bWIAAAAeanVtZGMycGEAEQAQgAAAqgA4m3EDYzJwYQAAABZcanVtYgAAAEdqdW1kYzJtYQARABCAAACqADibcQN1cm46YzJwYTplMDk1MmZmZC1kYWVmLTRmNDAtYTg3YS0zYjY2MGYwMWE2OTcAAAADl2p1bWIAAAApanVtZGMyYXMAEQAQgAAAqgA4m3EDYzJwYS5hc3NlcnRpb25zAAAAALxqdW1iAAAARGp1bWRjYm9yABEAEIAAAKoAOJtxE2MycGEuaW5ncmVkaWVudC52MwAAAAAYYzJzaErglKl3Lxod5MiZhWnck3AAAABwY2JvcqNpZGM6Zm9ybWF0bWltYWdlL3N2Zyt4bWxqaW5zdGFuY2VJRHgseG1wOmlpZDo0ZjI2NzIyOS05Yzk0LTQxNTgtYmQyMi0zYjgwYmM2MmU1YWZscmVsYXRpb25zaGlwaHBhcmVudE9mAAAB4mp1bWIAAABBanVtZGNib3IAEQAQgAAAqgA4m3ETYzJwYS5hY3Rpb25zLnYyAAAAABhjMnNom9x8/QEYRvSfF7s8ZhysmQAAAZljYm9yomdhY3Rpb25zgqJmYWN0aW9ua2MycGEub3BlbmVkanBhcmFtZXRlcnOha2luZ3JlZGllbnRzgaJjdXJseC1zZWxmI2p1bWJmPWMycGEuYXNzZXJ0aW9ucy9jMnBhLmluZ3JlZGllbnQudjNkaGFzaFgg7YRKb6qUZL7pxgzW+PwmmwS/IMPdmJNJxdQp8xIBn0akZmFjdGlvbngdY29tLmFudGhyb3BpYy5jbGF1ZGUucHJvdmlkZWRqcGFyYW1ldGVyc6F4H2NvbS5hbnRocm9waWMub3JpZ2luLWNvbmZpZGVuY2VndW5rbm93bmtkZXNjcmlwdGlvbnhmQ2xhdWRlIHByb3ZpZGVkIHRoaXMgZmlsZSBhdCB0aGUgcmVxdWVzdCBvZiBhIHVzZXIgYW5kIG1heSBoYXZlIGNyZWF0ZWQgb3IgbW9kaWZpZWQgdGhlIGZpbGUgY29udGVudHMubXNvZnR3YXJlQWdlbnShZG5hbWVmQ2xhdWRlcmFsbEFjdGlvbnNJbmNsdWRlZPUAAADIanVtYgAAAEBqdW1kY2JvcgARABCAAACqADibcRNjMnBhLmhhc2guZGF0YQAAAAAYYzJzaLPlgXLvwFn+8DRdEYSo284AAACAY2JvcqVjYWxnZnNoYTI1NmNwYWRNAAAAAAAAAAAAAAAAAGRoYXNoWCBnSkjLcwKWnIzdMtoRfwarrLSbvHSdVhv0DnnsKSwkWWRuYW1lbmp1bWJmIG1hbmlmZXN0amV4Y2x1c2lvbnOBomVzdGFydBjWZmxlbmd0aBkeBAAAAj5qdW1iAAAAJ2p1bWRjMmNsABEAEIAAAKoAOJtxA2MycGEuY2xhaW0udjIAAAACD2Nib3KlY2FsZ2ZzaGEyNTZpc2lnbmF0dXJleE1zZWxmI2p1bWJmPS9jMnBhL3VybjpjMnBhOmUwOTUyZmZkLWRhZWYtNGY0MC1hODdhLTNiNjYwZjAxYTY5Ny9jMnBhLnNpZ25hdHVyZWppbnN0YW5jZUlEeCx4bXA6aWlkOjkxZGI2NjMwLTUwZTUtNDFhNy04NDdkLTU4NTRkZDk3ODM2OXJjcmVhdGVkX2Fzc2VydGlvbnODomN1cmx4LXNlbGYjanVtYmY9YzJwYS5hc3NlcnRpb25zL2MycGEuaW5ncmVkaWVudC52M2RoYXNoWCDthEpvqpRkvunGDNb4/CabBL8gw92Yk0nF1CnzEgGfRqJjdXJseCpzZWxmI2p1bWJmPWMycGEuYXNzZXJ0aW9ucy9jMnBhLmFjdGlvbnMudjJkaGFzaFgg0XU7JXt8feap0typPl4FvivZM8uoW4WSREX+7NvGwXaiY3VybHgpc2VsZiNqdW1iZj1jMnBhLmFzc2VydGlvbnMvYzJwYS5oYXNoLmRhdGFkaGFzaFgg7EhuKMoL2wb7mKqQ26MZXCqJPLdbfNMBHTh1pMH4H5F0Y2xhaW1fZ2VuZXJhdG9yX2luZm+jZG5hbWVvQW50aHJvcGljIEZpbGVzZ3ZlcnNpb25lMS4wLjBrc3BlY1ZlcnNpb25lMi40LjAAABA4anVtYgAAAChqdW1kYzJjcwARABCAAACqADibcQNjMnBhLnNpZ25hdHVyZQAAABAIY2JvctKEWQISogEmGCFZAgowggIGMIIBjaADAgECAhRA5aAK7sI50L64g/oGQgU9Z1UTADAKBggqhkjOPQQDAzBJMRcwFQYDVQQKEw5BbnRocm9waWMsIFBCQzEuMCwGA1UEAxMlQW50aHJvcGljIENvbnRlbnQgQ3JlZGVudGlhbHMgUm9vdCBDQTAeFw0yNjA4MDcxODQzNTZaFw0yODA4MDYxOTQzNTZaMEQxFzAVBgNVBAoTDkFudGhyb3BpYywgUEJDMSkwJwYDVQQDEyBBbnRocm9waWMgQ2xhdWRlIENvbnRlbnQgU2lnbmluZzBZMBMGByqGSM49AgEGCCqGSM49AwEHA0IABJh6CmvLUBgFFNU0vUKlOVtE6djd17L5SuwX0LemFisBM3dkd/3cyjxFA3Qo5S46fX0/ihY0VZ7mfb9KF703t5OjWDBWMA4GA1UdDwEB/wQEAwIHgDAVBgNVHSUEDjAMBgorBgEEAYPoXgIBMAwGA1UdEwEB/wQCMAAwHwYDVR0jBBgwFoAUzlHiBIFOZFsj+OPEz5o+nMHXXMIwCgYIKoZIzj0EAwMDZwAwZAIwMXMdFJ4BetLLVY7ORuE9noqbbAZOZn/aArXyTwFAZfKrPzxF2vPoJNf1+UCdg1XGAjBwX1zd9WGqYkqmL5SFqw1QySjr1zJfpJM9+1rdDwSPLMOPOjKuiXjoU/pUUeG9RwmhY3BhZFkNngAAAAAAAAAAAAAAAAAAAAAAAAAAAAAAAAAAAAAAAAAAAAAAAAAAAAAAAAAAAAAAAAAAAAAAAAAAAAAAAAAAAAAAAAAAAAAAAAAAAAAAAAAAAAAAAAAAAAAAAAAAAAAAAAAAAAAAAAAAAAAAAAAAAAAAAAAAAAAAAAAAAAAAAAAAAAAAAAAAAAAAAAAAAAAAAAAAAAAAAAAAAAAAAAAAAAAAAAAAAAAAAAAAAAAAAAAAAAAAAAAAAAAAAAAAAAAAAAAAAAAAAAAAAAAAAAAAAAAAAAAAAAAAAAAAAAAAAAAAAAAAAAAAAAAAAAAAAAAAAAAAAAAAAAAAAAAAAAAAAAAAAAAAAAAAAAAAAAAAAAAAAAAAAAAAAAAAAAAAAAAAAAAAAAAAAAAAAAAAAAAAAAAAAAAAAAAAAAAAAAAAAAAAAAAAAAAAAAAAAAAAAAAAAAAAAAAAAAAAAAAAAAAAAAAAAAAAAAAAAAAAAAAAAAAAAAAAAAAAAAAAAAAAAAAAAAAAAAAAAAAAAAAAAAAAAAAAAAAAAAAAAAAAAAAAAAAAAAAAAAAAAAAAAAAAAAAAAAAAAAAAAAAAAAAAAAAAAAAAAAAAAAAAAAAAAAAAAAAAAAAAAAAAAAAAAAAAAAAAAAAAAAAAAAAAAAAAAAAAAAAAAAAAAAAAAAAAAAAAAAAAAAAAAAAAAAAAAAAAAAAAAAAAAAAAAAAAAAAAAAAAAAAAAAAAAAAAAAAAAAAAAAAAAAAAAAAAAAAAAAAAAAAAAAAAAAAAAAAAAAAAAAAAAAAAAAAAAAAAAAAAAAAAAAAAAAAAAAAAAAAAAAAAAAAAAAAAAAAAAAAAAAAAAAAAAAAAAAAAAAAAAAAAAAAAAAAAAAAAAAAAAAAAAAAAAAAAAAAAAAAAAAAAAAAAAAAAAAAAAAAAAAAAAAAAAAAAAAAAAAAAAAAAAAAAAAAAAAAAAAAAAAAAAAAAAAAAAAAAAAAAAAAAAAAAAAAAAAAAAAAAAAAAAAAAAAAAAAAAAAAAAAAAAAAAAAAAAAAAAAAAAAAAAAAAAAAAAAAAAAAAAAAAAAAAAAAAAAAAAAAAAAAAAAAAAAAAAAAAAAAAAAAAAAAAAAAAAAAAAAAAAAAAAAAAAAAAAAAAAAAAAAAAAAAAAAAAAAAAAAAAAAAAAAAAAAAAAAAAAAAAAAAAAAAAAAAAAAAAAAAAAAAAAAAAAAAAAAAAAAAAAAAAAAAAAAAAAAAAAAAAAAAAAAAAAAAAAAAAAAAAAAAAAAAAAAAAAAAAAAAAAAAAAAAAAAAAAAAAAAAAAAAAAAAAAAAAAAAAAAAAAAAAAAAAAAAAAAAAAAAAAAAAAAAAAAAAAAAAAAAAAAAAAAAAAAAAAAAAAAAAAAAAAAAAAAAAAAAAAAAAAAAAAAAAAAAAAAAAAAAAAAAAAAAAAAAAAAAAAAAAAAAAAAAAAAAAAAAAAAAAAAAAAAAAAAAAAAAAAAAAAAAAAAAAAAAAAAAAAAAAAAAAAAAAAAAAAAAAAAAAAAAAAAAAAAAAAAAAAAAAAAAAAAAAAAAAAAAAAAAAAAAAAAAAAAAAAAAAAAAAAAAAAAAAAAAAAAAAAAAAAAAAAAAAAAAAAAAAAAAAAAAAAAAAAAAAAAAAAAAAAAAAAAAAAAAAAAAAAAAAAAAAAAAAAAAAAAAAAAAAAAAAAAAAAAAAAAAAAAAAAAAAAAAAAAAAAAAAAAAAAAAAAAAAAAAAAAAAAAAAAAAAAAAAAAAAAAAAAAAAAAAAAAAAAAAAAAAAAAAAAAAAAAAAAAAAAAAAAAAAAAAAAAAAAAAAAAAAAAAAAAAAAAAAAAAAAAAAAAAAAAAAAAAAAAAAAAAAAAAAAAAAAAAAAAAAAAAAAAAAAAAAAAAAAAAAAAAAAAAAAAAAAAAAAAAAAAAAAAAAAAAAAAAAAAAAAAAAAAAAAAAAAAAAAAAAAAAAAAAAAAAAAAAAAAAAAAAAAAAAAAAAAAAAAAAAAAAAAAAAAAAAAAAAAAAAAAAAAAAAAAAAAAAAAAAAAAAAAAAAAAAAAAAAAAAAAAAAAAAAAAAAAAAAAAAAAAAAAAAAAAAAAAAAAAAAAAAAAAAAAAAAAAAAAAAAAAAAAAAAAAAAAAAAAAAAAAAAAAAAAAAAAAAAAAAAAAAAAAAAAAAAAAAAAAAAAAAAAAAAAAAAAAAAAAAAAAAAAAAAAAAAAAAAAAAAAAAAAAAAAAAAAAAAAAAAAAAAAAAAAAAAAAAAAAAAAAAAAAAAAAAAAAAAAAAAAAAAAAAAAAAAAAAAAAAAAAAAAAAAAAAAAAAAAAAAAAAAAAAAAAAAAAAAAAAAAAAAAAAAAAAAAAAAAAAAAAAAAAAAAAAAAAAAAAAAAAAAAAAAAAAAAAAAAAAAAAAAAAAAAAAAAAAAAAAAAAAAAAAAAAAAAAAAAAAAAAAAAAAAAAAAAAAAAAAAAAAAAAAAAAAAAAAAAAAAAAAAAAAAAAAAAAAAAAAAAAAAAAAAAAAAAAAAAAAAAAAAAAAAAAAAAAAAAAAAAAAAAAAAAAAAAAAAAAAAAAAAAAAAAAAAAAAAAAAAAAAAAAAAAAAAAAAAAAAAAAAAAAAAAAAAAAAAAAAAAAAAAAAAAAAAAAAAAAAAAAAAAAAAAAAAAAAAAAAAAAAAAAAAAAAAAAAAAAAAAAAAAAAAAAAAAAAAAAAAAAAAAAAAAAAAAAAAAAAAAAAAAAAAAAAAAAAAAAAAAAAAAAAAAAAAAAAAAAAAAAAAAAAAAAAAAAAAAAAAAAAAAAAAAAAAAAAAAAAAAAAAAAAAAAAAAAAAAAAAAAAAAAAAAAAAAAAAAAAAAAAAAAAAAAAAAAAAAAAAAAAAAAAAAAAAAAAAAAAAAAAAAAAAAAAAAAAAAAAAAAAAAAAAAAAAAAAAAAAAAAAAAAAAAAAAAAAAAAAAAAAAAAAAAAAAAAAAAAAAAAAAAAAAAAAAAAAAAAAAAAAAAAAAAAAAAAAAAAAAAAAAAAAAAAAAAAAAAAAAAAAAAAAAAAAAAAAAAAAAAAAAAAAAAAAAAAAAAAAAAAAAAAAAAAAAAAAAAAAAAAAAAAAAAAAAAAAAAAAAAAAAAAAAAAAAAAAAAAAAAAAAAAAAAAAAAAAAAAAAAAAAAAAAAAAAAAAAAAAAAAAAAAAAAAAAAAAAAAAAAAAAAAAAAAAAAAAAAAAAAAAAAAAAAAAAAAAAAAAAAAAAAAAAAAAAAAAAAAAAAAAAAAAAAAAAAAAAAAAAAAAAAAAAAAAAAAAAAAAAAAAAAAAAAAAAAAAAAAAAAAAAAAAAAAAAAAAAAAAAAAAAAAAAAAAAAAAAAAAAAAAAAAAAAAAAAAAAAAAAAAAAAAAAAAAAAAAAAAAAAAAAAAAAAAAAAAAAAAAAAAAAAAAAAAAAAAAAAAAAAAAAAAAAAAAAAAAAAAAAAAAAAAAAAAAAAAAAAAAAAAAAAAAAAAAAAAAAAAAAAAAAAAAAAAAAAAAAAAAAAAAAAAAAAAAAAAAAAAAAAAAAAAAAAAAAAAAAAAAAAAAAAAAAAAAAAAAAAAAAAAAAAAAAAAAAAAAAAAAAAAAAAAAAAAAAAAAAAAAAAAAAAAAAAAAAAAAAAAAAAAAAAAAAAAAAAAAAAAAAAAAAAAAAAAAAAAAAAAAAAAAAAAAAAAAAAAAAAAAAAAAAAAAAAAAAAAAAAAAAAAAAAAAAAAAAAAAAAAAAAAAAAAAAAAAAAAAAAAAAAAAAAAAAAAAAAAAAAAAAAAAAAAAAAAAAAAAAAAAAAAAAAAAAAAAAAAAAAAAAAAAAAAAAAAAAAAAAAAAAAAAAAAAAAAAAAAAAAAAAAAAAAAAAAAAAAAAAAAAAAAAAAAAAAAAAAAAAAAAAAAAAAAAAAAAAAAAAAAAAAAAAAAAAAAAAAAAAAAAAAAAAAAAAAAAAAAAAAAAAAAAAAAAAAAAAAAAAAAAAAAAAAAAAAAAAAAAAAAAAAAAAAAAAAAAAAAAAAAAAAAAAAAAAAAAAAAAAAAAAAAAAAAAAAAAAAAAAAAAAAAAAAAAAAAAAAAAAAAAAAAAAAAAAAAAAAAAAAAAAAAAAAAAAAAAAAAAAAAAAAAAAAAAAAAAAAAAAAAAAAAAAAAAAAAAAAAAAAAAAAAAAAAAAAAAAAAAAAAAAAAAAAAAAAAAAAAAAAAAAAAAAAAAAAAAAAAAAAAAAAAAAAAAAAAAAAAAAAAAAAAAAAAAAAAAAAAAAAAAAAAAAAAAAAAAAAAAAAAAAAAAAAAAAAAAAAAAAAAAAAAAAAAAAAAAAAAAAAAAAAAAAAAAAAAAAAAAAAAAAAAAAAAAAAAAAAAAAAAAAAAAAAAAAAAAAAAAAAAAAAAAAAAAAAAAAAAAAAAAAAAAAAAAAAAAAAAAAAAAAAAAAAAAAAAAAAAAAAAAAAAAAAAAAAAAAAAAAAAAAAAAAAAAAAAAAAAAAAAAAAAAAAAAAAAAAAAAAAAAAAAAAAAAAAAAAAAAAAAAAAAAAAAAAAAAAAAAAAAAAAAAAAAAAAAAAAAAAAAAAAAAAAAAAAAAAAAAAAAAAAAAAAAAAAAAAAAAAAAAAAAAAAAAAAAAAAAAAAAAAAAAAAAAAAAAAAAAAAAAAAAAAAAAAAAAAAAAAAAAAAAAAAAAAAAAAAPZYQGFauRGe2BGw1Rm7g4Hn+/vGPIcYJaCTpqIM6bprir4/5jduZsJ4NhmLLiM78qwy9AgeRKrJAKoAA9WEXDDkLiE=</c2pa:manifest></metadata>
<defs><filter id="sh" x="-5%" y="-5%" width="110%" height="115%"><feDropShadow dx="0" dy="3" stdDeviation="4" flood-color="#15304A" flood-opacity="0.18"/></filter>
<linearGradient id="g_configuracion_sistema" x1="0" x2="1"><stop offset="0" stop-color="#5B4B9A"/><stop offset="1" stop-color="#7A68C0"/></linearGradient>
<linearGradient id="g_usuarios" x1="0" x2="1"><stop offset="0" stop-color="#15304A"/><stop offset="1" stop-color="#2A5A86"/></linearGradient>
<linearGradient id="g_empleados" x1="0" x2="1"><stop offset="0" stop-color="#9B3B6A"/><stop offset="1" stop-color="#C0588A"/></linearGradient>
<linearGradient id="g_transacciones" x1="0" x2="1"><stop offset="0" stop-color="#B8612A"/><stop offset="1" stop-color="#D9823F"/></linearGradient>
<linearGradient id="g_wallets" x1="0" x2="1"><stop offset="0" stop-color="#136F63"/><stop offset="1" stop-color="#1F9A86"/></linearGradient>
<linearGradient id="g_vinculaciones" x1="0" x2="1"><stop offset="0" stop-color="#3F6E2A"/><stop offset="1" stop-color="#5E9442"/></linearGradient>
</defs><rect width="100%" height="100%" fill="#FFFFFF"/>
<text x="60" y="58" font-size="30" font-weight="bold" fill="#15304A">Quantum Wallet · Modelo entidad-relación</text>
<text x="60" y="88" font-size="15" fill="#6A7A89">Esquema relacional de quantum_wallet.db (SQLite) derivado del diagrama de clases UML de usuarios.py</text>
<polyline points="730.0,426.0 730.0,560.0" fill="none" stroke="#15304A" stroke-width="2"/>
<line x1="739.0" y1="436.0" x2="721.0" y2="436.0" stroke="#15304A" stroke-width="2" fill="none"/><line x1="739.0" y1="443.0" x2="721.0" y2="443.0" stroke="#15304A" stroke-width="2" fill="none"/>
<line x1="721.0" y1="550.0" x2="739.0" y2="550.0" stroke="#15304A" stroke-width="2" fill="none"/><line x1="721.0" y1="543.0" x2="739.0" y2="543.0" stroke="#15304A" stroke-width="2" fill="none"/>
<text x="742.0" y="497.0" font-size="13" text-anchor="start" font-weight="bold" fill="#15304A">posee  1 : 1</text>
<polyline points="900.0,223.0 1060.0,223.0" fill="none" stroke="#15304A" stroke-width="2"/>
<line x1="910.0" y1="214.0" x2="910.0" y2="232.0" stroke="#15304A" stroke-width="2" fill="none"/><line x1="917.0" y1="214.0" x2="917.0" y2="232.0" stroke="#15304A" stroke-width="2" fill="none"/>
<line x1="1050.0" y1="232.0" x2="1050.0" y2="214.0" stroke="#15304A" stroke-width="2" fill="none"/><circle cx="1036.0" cy="223.0" r="6" fill="#FFFFFF" stroke="#15304A" stroke-width="2"/>
<text x="980.0" y="213.0" font-size="13" text-anchor="middle" font-weight="bold" fill="#15304A">es  1 : 0..1</text>
<polyline points="900.0,373.0 980.0,373.0 980.0,633.0 1060.0,633.0" fill="none" stroke="#15304A" stroke-width="2"/>
<line x1="910.0" y1="364.0" x2="910.0" y2="382.0" stroke="#15304A" stroke-width="2" fill="none"/><line x1="917.0" y1="364.0" x2="917.0" y2="382.0" stroke="#15304A" stroke-width="2" fill="none"/>
<line x1="1044.0" y1="633.0" x2="1060.0" y2="643.0" stroke="#15304A" stroke-width="2" fill="none"/><line x1="1044.0" y1="633.0" x2="1060.0" y2="623.0" stroke="#15304A" stroke-width="2" fill="none"/><line x1="1044.0" y1="633.0" x2="1060.0" y2="633.0" stroke="#15304A" stroke-width="2" fill="none"/><circle cx="1034.0" cy="633.0" r="6" fill="#FFFFFF" stroke="#15304A" stroke-width="2"/>
<text x="990.0" y="503.0" font-size="13" text-anchor="start" font-weight="bold" fill="#15304A">vincula  1 : N</text>
<polyline points="1230.0,306.0 1230.0,560.0" fill="none" stroke="#15304A" stroke-width="2"/>
<line x1="1239.0" y1="316.0" x2="1221.0" y2="316.0" stroke="#15304A" stroke-width="2" fill="none"/><line x1="1239.0" y1="323.0" x2="1221.0" y2="323.0" stroke="#15304A" stroke-width="2" fill="none"/>
<line x1="1230.0" y1="544.0" x2="1220.0" y2="560.0" stroke="#15304A" stroke-width="2" fill="none"/><line x1="1230.0" y1="544.0" x2="1240.0" y2="560.0" stroke="#15304A" stroke-width="2" fill="none"/><line x1="1230.0" y1="544.0" x2="1230.0" y2="560.0" stroke="#15304A" stroke-width="2" fill="none"/><circle cx="1230.0" cy="534.0" r="6" fill="#FFFFFF" stroke="#15304A" stroke-width="2"/>
<text x="1242.0" y="437.0" font-size="13" text-anchor="start" font-weight="bold" fill="#15304A">trabaja en  1 : N</text>
<polyline points="560.0,633.0 480.0,633.0 480.0,663.0 400.0,663.0" fill="none" stroke="#15304A" stroke-width="2"/>
<line x1="550.0" y1="642.0" x2="550.0" y2="624.0" stroke="#15304A" stroke-width="2" fill="none"/><line x1="543.0" y1="642.0" x2="543.0" y2="624.0" stroke="#15304A" stroke-width="2" fill="none"/>
<line x1="416.0" y1="663.0" x2="400.0" y2="653.0" stroke="#15304A" stroke-width="2" fill="none"/><line x1="416.0" y1="663.0" x2="400.0" y2="673.0" stroke="#15304A" stroke-width="2" fill="none"/><line x1="416.0" y1="663.0" x2="400.0" y2="663.0" stroke="#15304A" stroke-width="2" fill="none"/><circle cx="426.0" cy="663.0" r="6" fill="#FFFFFF" stroke="#15304A" stroke-width="2"/>
<text x="425.0" y="623.0" font-size="13" text-anchor="start" font-weight="bold" fill="#15304A">registra  1 : N</text>
<polyline points="560.0,733.0 510.0,733.0 510.0,783.0 400.0,783.0" fill="none" stroke="#15304A" stroke-width="2"/>
<line x1="550.0" y1="742.0" x2="550.0" y2="724.0" stroke="#15304A" stroke-width="2" fill="none"/><circle cx="536.0" cy="733.0" r="6" fill="#FFFFFF" stroke="#15304A" stroke-width="2"/>
<line x1="416.0" y1="783.0" x2="400.0" y2="773.0" stroke="#15304A" stroke-width="2" fill="none"/><line x1="416.0" y1="783.0" x2="400.0" y2="793.0" stroke="#15304A" stroke-width="2" fill="none"/><line x1="416.0" y1="783.0" x2="400.0" y2="783.0" stroke="#15304A" stroke-width="2" fill="none"/><circle cx="426.0" cy="783.0" r="6" fill="#FFFFFF" stroke="#15304A" stroke-width="2"/>
<text x="425.0" y="805.0" font-size="13" text-anchor="start" font-weight="bold" fill="#15304A">contraparte  0..1 : N</text>
<polyline points="230.0,366.0 230.0,560.0" fill="none" stroke="#15304A" stroke-width="2" stroke-dasharray="7 6"/>
<polygon points="230.0,560.0 223.0,546.0 237.0,546.0" fill="#15304A"/>
<text x="242.0" y="457.0" font-size="13" text-anchor="start" font-style="italic" fill="#6A7A89">límite por transacción</text>
<text x="242.0" y="475.0" font-size="13" text-anchor="start" font-style="italic" fill="#6A7A89">«trigger»</text>
<polyline points="400.0,253.0 560.0,283.0" fill="none" stroke="#15304A" stroke-width="2" stroke-dasharray="7 6"/>
<polygon points="560.0,283.0 544.9,287.3 547.5,273.5" fill="#15304A"/>
<text x="414.0" y="287.0" font-size="13" text-anchor="start" font-style="italic" fill="#6A7A89">moneda de</text>
<text x="414.0" y="305.0" font-size="13" text-anchor="start" font-style="italic" fill="#6A7A89">la wallet «trigger»</text>
<g filter="url(#sh)"><rect x="60" y="150" width="340" height="216" rx="7" fill="#FFFFFF" stroke="#5B4B9A" stroke-width="2"/></g>
<path d="M60,208 v-51 a7,7 0 0 1 7,-7 h326 a7,7 0 0 1 7,7 v51 z" fill="url(#g_configuracion_sistema)"/>
<text x="230.0" y="167" font-size="11" fill="#FFFFFF" fill-opacity="0.9" text-anchor="middle">«nueva»</text>
<text x="230.0" y="186" font-size="17" font-weight="bold" fill="#FFFFFF" text-anchor="middle">configuracion_sistema</text>
<text x="230.0" y="201" font-size="11" fill="#FFFFFF" fill-opacity="0.85" text-anchor="middle">BancoCentral (Singleton)</text>
<rect x="62" y="208" width="336" height="30" fill="#FFF4D6"/>
<line x1="62" y1="238" x2="398" y2="238" stroke="#D5DEE7"/>
<rect x="72" y="215" width="24" height="16" rx="3" fill="#C0392B"/><text x="84" y="227" font-size="10" font-weight="bold" fill="#FFFFFF" text-anchor="middle">PK</text>
<text x="132" y="228" font-size="13.5" fill="#1F2D3D" font-family="Liberation Mono, Menlo, monospace" font-weight="bold">id</text>
<text x="386" y="228" font-size="12.5" fill="#2E6C99" text-anchor="end" font-family="Liberation Mono, Menlo, monospace">INTEGER</text>
<rect x="62" y="238" width="336" height="30" fill="#FFF4D6"/>
<line x1="62" y1="268" x2="398" y2="268" stroke="#D5DEE7"/>
<text x="132" y="258" font-size="13.5" fill="#1F2D3D" font-family="Liberation Mono, Menlo, monospace">moneda</text>
<text x="386" y="258" font-size="12.5" fill="#2E6C99" text-anchor="end" font-family="Liberation Mono, Menlo, monospace">TEXT</text>
<rect x="62" y="268" width="336" height="30" fill="#FFF4D6"/>
<line x1="62" y1="298" x2="398" y2="298" stroke="#D5DEE7"/>
<text x="132" y="288" font-size="13.5" fill="#1F2D3D" font-family="Liberation Mono, Menlo, monospace">limite_transaccion</text>
<text x="386" y="288" font-size="12.5" fill="#2E6C99" text-anchor="end" font-family="Liberation Mono, Menlo, monospace">REAL</text>
<rect x="62" y="298" width="336" height="30" fill="#FFF4D6"/>
<line x1="62" y1="328" x2="398" y2="328" stroke="#D5DEE7"/>
<text x="132" y="318" font-size="13.5" fill="#1F2D3D" font-family="Liberation Mono, Menlo, monospace">fondos_totales</text>
<text x="386" y="318" font-size="12.5" fill="#2E6C99" text-anchor="end" font-family="Liberation Mono, Menlo, monospace">REAL</text>
<rect x="62" y="328" width="336" height="30" fill="#FFF4D6"/>
<text x="132" y="348" font-size="13.5" fill="#1F2D3D" font-family="Liberation Mono, Menlo, monospace">reservas</text>
<text x="386" y="348" font-size="12.5" fill="#2E6C99" text-anchor="end" font-family="Liberation Mono, Menlo, monospace">REAL</text>
<g filter="url(#sh)"><rect x="560" y="150" width="340" height="276" rx="7" fill="#FFFFFF" stroke="#15304A" stroke-width="2"/></g>
<path d="M560,208 v-51 a7,7 0 0 1 7,-7 h326 a7,7 0 0 1 7,7 v51 z" fill="url(#g_usuarios)"/>
<text x="730.0" y="179" font-size="17" font-weight="bold" fill="#FFFFFF" text-anchor="middle">usuarios</text>
<text x="730.0" y="197" font-size="11" fill="#FFFFFF" fill-opacity="0.85" text-anchor="middle">Usuario · UsuarioEmpresa</text>
<line x1="562" y1="238" x2="898" y2="238" stroke="#D5DEE7"/>
<rect x="572" y="215" width="24" height="16" rx="3" fill="#C0392B"/><text x="584" y="227" font-size="10" font-weight="bold" fill="#FFFFFF" text-anchor="middle">PK</text>
<text x="632" y="228" font-size="13.5" fill="#1F2D3D" font-family="Liberation Mono, Menlo, monospace" font-weight="bold">id_usuario</text>
<text x="886" y="228" font-size="12.5" fill="#2E6C99" text-anchor="end" font-family="Liberation Mono, Menlo, monospace">INTEGER</text>
<rect x="562" y="238" width="336" height="30" fill="#FFF4D6"/>
<line x1="562" y1="268" x2="898" y2="268" stroke="#D5DEE7"/>
<text x="632" y="258" font-size="13.5" fill="#1F2D3D" font-family="Liberation Mono, Menlo, monospace">tipo_usuario</text>
<text x="886" y="258" font-size="12.5" fill="#2E6C99" text-anchor="end" font-family="Liberation Mono, Menlo, monospace">TEXT</text>
<line x1="562" y1="298" x2="898" y2="298" stroke="#D5DEE7"/>
<text x="632" y="288" font-size="13.5" fill="#1F2D3D" font-family="Liberation Mono, Menlo, monospace">nombre</text>
<text x="886" y="288" font-size="12.5" fill="#2E6C99" text-anchor="end" font-family="Liberation Mono, Menlo, monospace">TEXT</text>
<line x1="562" y1="328" x2="898" y2="328" stroke="#D5DEE7"/>
<rect x="572" y="305" width="24" height="16" rx="3" fill="#2E8B57"/><text x="584" y="317" font-size="10" font-weight="bold" fill="#FFFFFF" text-anchor="middle">UK</text>
<text x="632" y="318" font-size="13.5" fill="#1F2D3D" font-family="Liberation Mono, Menlo, monospace">email</text>
<text x="886" y="318" font-size="12.5" fill="#2E6C99" text-anchor="end" font-family="Liberation Mono, Menlo, monospace">TEXT</text>
<rect x="562" y="328" width="336" height="30" fill="#FFF4D6"/>
<line x1="562" y1="358" x2="898" y2="358" stroke="#D5DEE7"/>
<rect x="572" y="335" width="24" height="16" rx="3" fill="#2E8B57"/><text x="584" y="347" font-size="10" font-weight="bold" fill="#FFFFFF" text-anchor="middle">UK</text>
<text x="632" y="348" font-size="13.5" fill="#1F2D3D" font-family="Liberation Mono, Menlo, monospace">cedula</text>
<text x="886" y="348" font-size="12.5" fill="#2E6C99" text-anchor="end" font-family="Liberation Mono, Menlo, monospace">TEXT</text>
<line x1="562" y1="388" x2="898" y2="388" stroke="#D5DEE7"/>
<rect x="572" y="365" width="24" height="16" rx="3" fill="#2E8B57"/><text x="584" y="377" font-size="10" font-weight="bold" fill="#FFFFFF" text-anchor="middle">UK</text>
<text x="632" y="378" font-size="13.5" fill="#1F2D3D" font-family="Liberation Mono, Menlo, monospace">nit</text>
<text x="886" y="378" font-size="12.5" fill="#2E6C99" text-anchor="end" font-family="Liberation Mono, Menlo, monospace">TEXT</text>
<rect x="562" y="388" width="336" height="30" fill="#FFF4D6"/>
<text x="632" y="408" font-size="13.5" fill="#1F2D3D" font-family="Liberation Mono, Menlo, monospace">fecha_registro</text>
<text x="886" y="408" font-size="12.5" fill="#2E6C99" text-anchor="end" font-family="Liberation Mono, Menlo, monospace">TEXT</text>
<g filter="url(#sh)"><rect x="1060" y="150" width="340" height="156" rx="7" fill="#FFFFFF" stroke="#9B3B6A" stroke-width="2"/></g>
<path d="M1060,208 v-51 a7,7 0 0 1 7,-7 h326 a7,7 0 0 1 7,7 v51 z" fill="url(#g_empleados)"/>
<text x="1230.0" y="167" font-size="11" fill="#FFFFFF" fill-opacity="0.9" text-anchor="middle">«nueva»</text>
<text x="1230.0" y="186" font-size="17" font-weight="bold" fill="#FFFFFF" text-anchor="middle">empleados</text>
<text x="1230.0" y="201" font-size="11" fill="#FFFFFF" fill-opacity="0.85" text-anchor="middle">Empleado (hereda de Usuario)</text>
<rect x="1062" y="208" width="336" height="30" fill="#FFF4D6"/>
<line x1="1062" y1="238" x2="1398" y2="238" stroke="#D5DEE7"/>
<rect x="1072" y="215" width="24" height="16" rx="3" fill="#C0392B"/><text x="1084" y="227" font-size="10" font-weight="bold" fill="#FFFFFF" text-anchor="middle">PK</text>
<rect x="1100" y="215" width="24" height="16" rx="3" fill="#2E6C99"/><text x="1112" y="227" font-size="10" font-weight="bold" fill="#FFFFFF" text-anchor="middle">FK</text>
<text x="1132" y="228" font-size="13.5" fill="#1F2D3D" font-family="Liberation Mono, Menlo, monospace" font-weight="bold">id_usuario</text>
<text x="1386" y="228" font-size="12.5" fill="#2E6C99" text-anchor="end" font-family="Liberation Mono, Menlo, monospace">INTEGER</text>
<rect x="1062" y="238" width="336" height="30" fill="#FFF4D6"/>
<line x1="1062" y1="268" x2="1398" y2="268" stroke="#D5DEE7"/>
<text x="1132" y="258" font-size="13.5" fill="#1F2D3D" font-family="Liberation Mono, Menlo, monospace">cargo</text>
<text x="1386" y="258" font-size="12.5" fill="#2E6C99" text-anchor="end" font-family="Liberation Mono, Menlo, monospace">TEXT</text>
<rect x="1062" y="268" width="336" height="30" fill="#FFF4D6"/>
<text x="1132" y="288" font-size="13.5" fill="#1F2D3D" font-family="Liberation Mono, Menlo, monospace">salario</text>
<text x="1386" y="288" font-size="12.5" fill="#2E6C99" text-anchor="end" font-family="Liberation Mono, Menlo, monospace">REAL</text>
<g filter="url(#sh)"><rect x="60" y="560" width="340" height="306" rx="7" fill="#FFFFFF" stroke="#B8612A" stroke-width="2"/></g>
<path d="M60,618 v-51 a7,7 0 0 1 7,-7 h326 a7,7 0 0 1 7,7 v51 z" fill="url(#g_transacciones)"/>
<text x="230.0" y="577" font-size="11" fill="#FFFFFF" fill-opacity="0.9" text-anchor="middle">«nueva»</text>
<text x="230.0" y="596" font-size="17" font-weight="bold" fill="#FFFFFF" text-anchor="middle">transacciones</text>
<text x="230.0" y="611" font-size="11" fill="#FFFFFF" fill-opacity="0.85" text-anchor="middle">Transaccion</text>
<rect x="62" y="618" width="336" height="30" fill="#FFF4D6"/>
<line x1="62" y1="648" x2="398" y2="648" stroke="#D5DEE7"/>
<rect x="72" y="625" width="24" height="16" rx="3" fill="#C0392B"/><text x="84" y="637" font-size="10" font-weight="bold" fill="#FFFFFF" text-anchor="middle">PK</text>
<text x="132" y="638" font-size="13.5" fill="#1F2D3D" font-family="Liberation Mono, Menlo, monospace" font-weight="bold">id_transaccion</text>
<text x="386" y="638" font-size="12.5" fill="#2E6C99" text-anchor="end" font-family="Liberation Mono, Menlo, monospace">INTEGER</text>
<rect x="62" y="648" width="336" height="30" fill="#FFF4D6"/>
<line x1="62" y1="678" x2="398" y2="678" stroke="#D5DEE7"/>
<rect x="72" y="655" width="24" height="16" rx="3" fill="#2E6C99"/><text x="84" y="667" font-size="10" font-weight="bold" fill="#FFFFFF" text-anchor="middle">FK</text>
<text x="132" y="668" font-size="13.5" fill="#1F2D3D" font-family="Liberation Mono, Menlo, monospace">id_wallet</text>
<text x="386" y="668" font-size="12.5" fill="#2E6C99" text-anchor="end" font-family="Liberation Mono, Menlo, monospace">INTEGER</text>
<rect x="62" y="678" width="336" height="30" fill="#FFF4D6"/>
<line x1="62" y1="708" x2="398" y2="708" stroke="#D5DEE7"/>
<text x="132" y="698" font-size="13.5" fill="#1F2D3D" font-family="Liberation Mono, Menlo, monospace">tipo</text>
<text x="386" y="698" font-size="12.5" fill="#2E6C99" text-anchor="end" font-family="Liberation Mono, Menlo, monospace">TEXT</text>
<rect x="62" y="708" width="336" height="30" fill="#FFF4D6"/>
<line x1="62" y1="738" x2="398" y2="738" stroke="#D5DEE7"/>
<text x="132" y="728" font-size="13.5" fill="#1F2D3D" font-family="Liberation Mono, Menlo, monospace">monto</text>
<text x="386" y="728" font-size="12.5" fill="#2E6C99" text-anchor="end" font-family="Liberation Mono, Menlo, monospace">REAL</text>
<rect x="62" y="738" width="336" height="30" fill="#FFF4D6"/>
<line x1="62" y1="768" x2="398" y2="768" stroke="#D5DEE7"/>
<text x="132" y="758" font-size="13.5" fill="#1F2D3D" font-family="Liberation Mono, Menlo, monospace">saldo_resultante</text>
<text x="386" y="758" font-size="12.5" fill="#2E6C99" text-anchor="end" font-family="Liberation Mono, Menlo, monospace">REAL</text>
<rect x="62" y="768" width="336" height="30" fill="#FFF4D6"/>
<line x1="62" y1="798" x2="398" y2="798" stroke="#D5DEE7"/>
<rect x="72" y="775" width="24" height="16" rx="3" fill="#2E6C99"/><text x="84" y="787" font-size="10" font-weight="bold" fill="#FFFFFF" text-anchor="middle">FK</text>
<text x="132" y="788" font-size="13.5" fill="#1F2D3D" font-family="Liberation Mono, Menlo, monospace">id_wallet_contraparte</text>
<text x="386" y="788" font-size="12.5" fill="#2E6C99" text-anchor="end" font-family="Liberation Mono, Menlo, monospace">INTEGER</text>
<rect x="62" y="798" width="336" height="30" fill="#FFF4D6"/>
<line x1="62" y1="828" x2="398" y2="828" stroke="#D5DEE7"/>
<text x="132" y="818" font-size="13.5" fill="#1F2D3D" font-family="Liberation Mono, Menlo, monospace">descripcion</text>
<text x="386" y="818" font-size="12.5" fill="#2E6C99" text-anchor="end" font-family="Liberation Mono, Menlo, monospace">TEXT</text>
<rect x="62" y="828" width="336" height="30" fill="#FFF4D6"/>
<text x="132" y="848" font-size="13.5" fill="#1F2D3D" font-family="Liberation Mono, Menlo, monospace">fecha</text>
<text x="386" y="848" font-size="12.5" fill="#2E6C99" text-anchor="end" font-family="Liberation Mono, Menlo, monospace">TEXT</text>
<g filter="url(#sh)"><rect x="560" y="560" width="340" height="246" rx="7" fill="#FFFFFF" stroke="#136F63" stroke-width="2"/></g>
<path d="M560,618 v-51 a7,7 0 0 1 7,-7 h326 a7,7 0 0 1 7,7 v51 z" fill="url(#g_wallets)"/>
<text x="730.0" y="589" font-size="17" font-weight="bold" fill="#FFFFFF" text-anchor="middle">wallets</text>
<text x="730.0" y="607" font-size="11" fill="#FFFFFF" fill-opacity="0.85" text-anchor="middle">Wallet</text>
<line x1="562" y1="648" x2="898" y2="648" stroke="#D5DEE7"/>
<rect x="572" y="625" width="24" height="16" rx="3" fill="#C0392B"/><text x="584" y="637" font-size="10" font-weight="bold" fill="#FFFFFF" text-anchor="middle">PK</text>
<text x="632" y="638" font-size="13.5" fill="#1F2D3D" font-family="Liberation Mono, Menlo, monospace" font-weight="bold">id_wallet</text>
<text x="886" y="638" font-size="12.5" fill="#2E6C99" text-anchor="end" font-family="Liberation Mono, Menlo, monospace">INTEGER</text>
<rect x="562" y="648" width="336" height="30" fill="#FFF4D6"/>
<line x1="562" y1="678" x2="898" y2="678" stroke="#D5DEE7"/>
<rect x="572" y="655" width="24" height="16" rx="3" fill="#2E8B57"/><text x="584" y="667" font-size="10" font-weight="bold" fill="#FFFFFF" text-anchor="middle">UK</text>
<text x="632" y="668" font-size="13.5" fill="#1F2D3D" font-family="Liberation Mono, Menlo, monospace">codigo</text>
<text x="886" y="668" font-size="12.5" fill="#2E6C99" text-anchor="end" font-family="Liberation Mono, Menlo, monospace">TEXT</text>
<line x1="562" y1="708" x2="898" y2="708" stroke="#D5DEE7"/>
<text x="632" y="698" font-size="13.5" fill="#1F2D3D" font-family="Liberation Mono, Menlo, monospace">saldo</text>
<text x="886" y="698" font-size="12.5" fill="#2E6C99" text-anchor="end" font-family="Liberation Mono, Menlo, monospace">REAL</text>
<rect x="562" y="708" width="336" height="30" fill="#FFF4D6"/>
<line x1="562" y1="738" x2="898" y2="738" stroke="#D5DEE7"/>
<text x="632" y="728" font-size="13.5" fill="#1F2D3D" font-family="Liberation Mono, Menlo, monospace">moneda</text>
<text x="886" y="728" font-size="12.5" fill="#2E6C99" text-anchor="end" font-family="Liberation Mono, Menlo, monospace">TEXT</text>
<rect x="562" y="738" width="336" height="30" fill="#FFF4D6"/>
<line x1="562" y1="768" x2="898" y2="768" stroke="#D5DEE7"/>
<text x="632" y="758" font-size="13.5" fill="#1F2D3D" font-family="Liberation Mono, Menlo, monospace">fecha_creacion</text>
<text x="886" y="758" font-size="12.5" fill="#2E6C99" text-anchor="end" font-family="Liberation Mono, Menlo, monospace">TEXT</text>
<rect x="572" y="775" width="24" height="16" rx="3" fill="#2E6C99"/><text x="584" y="787" font-size="10" font-weight="bold" fill="#FFFFFF" text-anchor="middle">FK</text>
<rect x="600" y="775" width="24" height="16" rx="3" fill="#2E8B57"/><text x="612" y="787" font-size="10" font-weight="bold" fill="#FFFFFF" text-anchor="middle">UK</text>
<text x="632" y="788" font-size="13.5" fill="#1F2D3D" font-family="Liberation Mono, Menlo, monospace">id_propietario</text>
<text x="886" y="788" font-size="12.5" fill="#2E6C99" text-anchor="end" font-family="Liberation Mono, Menlo, monospace">INTEGER</text>
<g filter="url(#sh)"><rect x="1060" y="560" width="340" height="156" rx="7" fill="#FFFFFF" stroke="#3F6E2A" stroke-width="2"/></g>
<path d="M1060,618 v-51 a7,7 0 0 1 7,-7 h326 a7,7 0 0 1 7,7 v51 z" fill="url(#g_vinculaciones)"/>
<text x="1230.0" y="577" font-size="11" fill="#FFFFFF" fill-opacity="0.9" text-anchor="middle">«nueva»</text>
<text x="1230.0" y="596" font-size="17" font-weight="bold" fill="#FFFFFF" text-anchor="middle">vinculaciones</text>
<text x="1230.0" y="611" font-size="11" fill="#FFFFFF" fill-opacity="0.85" text-anchor="middle">Agregación Empresa ◇ Empleado</text>
<rect x="1062" y="618" width="336" height="30" fill="#FFF4D6"/>
<line x1="1062" y1="648" x2="1398" y2="648" stroke="#D5DEE7"/>
<rect x="1072" y="625" width="24" height="16" rx="3" fill="#C0392B"/><text x="1084" y="637" font-size="10" font-weight="bold" fill="#FFFFFF" text-anchor="middle">PK</text>
<rect x="1100" y="625" width="24" height="16" rx="3" fill="#2E6C99"/><text x="1112" y="637" font-size="10" font-weight="bold" fill="#FFFFFF" text-anchor="middle">FK</text>
<text x="1132" y="638" font-size="13.5" fill="#1F2D3D" font-family="Liberation Mono, Menlo, monospace" font-weight="bold">id_empresa</text>
<text x="1386" y="638" font-size="12.5" fill="#2E6C99" text-anchor="end" font-family="Liberation Mono, Menlo, monospace">INTEGER</text>
<rect x="1062" y="648" width="336" height="30" fill="#FFF4D6"/>
<line x1="1062" y1="678" x2="1398" y2="678" stroke="#D5DEE7"/>
<rect x="1072" y="655" width="24" height="16" rx="3" fill="#C0392B"/><text x="1084" y="667" font-size="10" font-weight="bold" fill="#FFFFFF" text-anchor="middle">PK</text>
<rect x="1100" y="655" width="24" height="16" rx="3" fill="#2E6C99"/><text x="1112" y="667" font-size="10" font-weight="bold" fill="#FFFFFF" text-anchor="middle">FK</text>
<text x="1132" y="668" font-size="13.5" fill="#1F2D3D" font-family="Liberation Mono, Menlo, monospace" font-weight="bold">id_empleado</text>
<text x="1386" y="668" font-size="12.5" fill="#2E6C99" text-anchor="end" font-family="Liberation Mono, Menlo, monospace">INTEGER</text>
<rect x="1062" y="678" width="336" height="30" fill="#FFF4D6"/>
<text x="1132" y="698" font-size="13.5" fill="#1F2D3D" font-family="Liberation Mono, Menlo, monospace">fecha_vinculacion</text>
<text x="1386" y="698" font-size="12.5" fill="#2E6C99" text-anchor="end" font-family="Liberation Mono, Menlo, monospace">TEXT</text>
<rect x="60" y="920" width="1340" height="110" rx="6" fill="#F4F6F8" stroke="#D5DEE7"/>
<text x="80" y="946" font-size="12" font-weight="bold" fill="#2E6C99" letter-spacing="1.5">CONVENCIONES</text>
<rect x="80" y="954" width="24" height="16" rx="3" fill="#C0392B"/><text x="92" y="966" font-size="10" font-weight="bold" fill="#FFF" text-anchor="middle">PK</text>
<text x="114" y="966" font-size="13" fill="#1F2D3D">Llave primaria</text>
<rect x="80" y="976" width="24" height="16" rx="3" fill="#2E6C99"/><text x="92" y="988" font-size="10" font-weight="bold" fill="#FFF" text-anchor="middle">FK</text>
<text x="114" y="988" font-size="13" fill="#1F2D3D">Llave foránea</text>
<rect x="80" y="998" width="24" height="16" rx="3" fill="#2E8B57"/><text x="92" y="1010" font-size="10" font-weight="bold" fill="#FFF" text-anchor="middle">UK</text>
<text x="114" y="1010" font-size="13" fill="#1F2D3D">Valor único (UNIQUE)</text>
<rect x="330" y="954" width="34" height="18" fill="#FFFFFF" stroke="#D5DEE7"/><text x="374" y="968" font-size="13" fill="#1F2D3D">Fila del código original de la actividad</text>
<rect x="330" y="982" width="34" height="18" fill="#FFF4D6" stroke="#D5DEE7"/><text x="374" y="996" font-size="13" fill="#1F2D3D">Fila adicionada para enriquecer el ejercicio</text>
<text x="330" y="1022" font-size="13" fill="#1F2D3D">«nueva»: tabla adicionada completa</text>
<line x1="760" y1="962" x2="850" y2="962" stroke="#15304A" stroke-width="2"/>
<line x1="770.0" y1="953.0" x2="770.0" y2="971.0" stroke="#15304A" stroke-width="2" fill="none"/><line x1="777.0" y1="953.0" x2="777.0" y2="971.0" stroke="#15304A" stroke-width="2" fill="none"/>
<line x1="840.0" y1="971.0" x2="840.0" y2="953.0" stroke="#15304A" stroke-width="2" fill="none"/><line x1="833.0" y1="971.0" x2="833.0" y2="953.0" stroke="#15304A" stroke-width="2" fill="none"/>
<text x="868" y="967" font-size="13" fill="#1F2D3D">Exactamente uno a exactamente uno (1 : 1)</text>
<line x1="760" y1="990" x2="850" y2="990" stroke="#15304A" stroke-width="2"/>
<line x1="770.0" y1="981.0" x2="770.0" y2="999.0" stroke="#15304A" stroke-width="2" fill="none"/><line x1="777.0" y1="981.0" x2="777.0" y2="999.0" stroke="#15304A" stroke-width="2" fill="none"/>
<line x1="834.0" y1="990.0" x2="850.0" y2="1000.0" stroke="#15304A" stroke-width="2" fill="none"/><line x1="834.0" y1="990.0" x2="850.0" y2="980.0" stroke="#15304A" stroke-width="2" fill="none"/><line x1="834.0" y1="990.0" x2="850.0" y2="990.0" stroke="#15304A" stroke-width="2" fill="none"/><circle cx="824.0" cy="990.0" r="6" fill="#FFFFFF" stroke="#15304A" stroke-width="2"/>
<text x="868" y="995" font-size="13" fill="#1F2D3D">Uno a cero o muchos (1 : N)</text>
<line x1="760" y1="1018" x2="850" y2="1018" stroke="#15304A" stroke-width="2" stroke-dasharray="7 6"/>
<polygon points="850.0,1018.0 836.0,1025.0 836.0,1011.0" fill="#15304A"/>
<text x="868" y="1023" font-size="13" fill="#1F2D3D">Dependencia aplicada mediante trigger</text>
<line x1="1160" y1="962" x2="1210" y2="962" stroke="#15304A" stroke-width="2"/>
<line x1="1200.0" y1="971.0" x2="1200.0" y2="953.0" stroke="#15304A" stroke-width="2" fill="none"/><circle cx="1186.0" cy="962.0" r="6" fill="#FFFFFF" stroke="#15304A" stroke-width="2"/>
<text x="1228" y="967" font-size="13" fill="#1F2D3D">Cero o uno (0..1)</text>
</svg>